Coordinates
version=1
nRows=5
nColumns=42
inDegrees=yes

Units are S.I. units (second, meters, Newtons, ...)
If the header above contains a line with 'inDegrees', this indicates whether rotational values are in degrees (yes) or radians (no).

endheader
time	pelvis_tilt	pelvis_list	pelvis_rotation	pelvis_tx	pelvis_ty	pelvis_tz	hip_flexion_r	hip_adduction_r	hip_rotation_r	knee_angle_r	knee_adduction_r	knee_angle_r_beta	ankle_angle_r	subtalar_angle_r	mtp_angle_r	hip_flexion_l	hip_adduction_l	hip_rotation_l	knee_angle_l	knee_adduction_l	knee_angle_l_beta	ankle_angle_l	subtalar_angle_l	mtp_angle_l	lumbar_extension	lumbar_bending	lumbar_rotation	arm_flex_r	arm_add_r	arm_rot_r	elbow_flex_r	pro_sup_r	wrist_flex_r	wrist_dev_r	arm_flex_l	arm_add_l	arm_rot_l	elbow_flex_l	pro_sup_l	wrist_flex_l	wrist_dev_l
      1.45000000	      8.12218443	     -1.46878601	     10.71028992	     -0.15879664	      0.87644192	      0.19724688	     -5.08866281	      9.11692783	      0.81909456	     14.22199180	      1.61379964	      0.24822058	     20.24205924	    -11.85887005	     -7.58874189	     18.16138197	      1.95571244	      3.16489747	     52.57168727	     -8.10348217	      0.91754904	     15.15327906	    -15.62006733	     -7.58874189	    -37.08366704	      7.11244746	     -4.17488413	     18.19117810	    -14.18018417	      3.65871856	     41.97999532	     90.00000001	      0.00000000	      0.00000000	     10.94566938	    -12.17442969	     -6.90066038	     31.59491046	     90.00000001	      0.00000000	      0.00000000
      1.46000000	      8.11818741	     -1.47861418	     10.66415579	     -0.15065523	      0.87587191	      0.19728410	     -5.79621042	      9.29293282	      1.11937171	     14.05864121	      1.55621249	      0.24536958	     20.64913001	    -11.92614881	     -7.58530534	     18.83902342	      2.06560842	      3.37173681	     50.45277502	     -7.58039019	      0.88056704	     14.99669225	    -15.21331688	     -7.58530534	    -37.01359471	      7.11216645	     -4.12055148	     18.82388878	    -14.37119844	      3.97092308	     42.36725218	     90.00000001	      0.00000000	      0.00000000	     10.61748327	    -12.05192007	     -7.24926114	     31.14000530	     90.00000001	      0.00000000	      0.00000000
      1.47000000	      7.94836176	     -1.65696415	     10.65164701	     -0.14260504	      0.87462375	      0.19734067	     -6.14401907	      9.73077636	      1.07868306	     14.15650020	      1.21872342	      0.24707754	     21.18026756	    -11.75302307	     -7.58375628	     19.85473619	      1.98133224	      3.36194471	     48.47370747	     -7.17710885	      0.84602580	     14.85281840	    -14.59664019	     -7.58375628	    -36.72466920	      7.26356906	     -4.02020688	     19.41430743	    -14.50908247	      4.07352032	     42.75861660	     90.00000001	      0.00000000	      0.00000000	     10.15962109	    -11.93734747	     -7.34518491	     30.94028602	     90.00000001	      0.00000000	      0.00000000
      1.48000000	      8.15362534	     -1.51514118	     10.54421588	     -0.13418199	      0.87440813	      0.19704034	     -7.26238479	      9.63425640	      1.42738940	     13.75711888	      1.38474555	      0.24010702	     21.61761629	    -11.62430831	     -7.58038913	     19.95752840	      2.18217790	      3.51536165	     45.82357796	     -6.54197590	      0.79977231	     14.59475852	    -14.32708336	     -7.58038913	    -36.87975232	      7.16372227	     -4.01751991	     20.05750749	    -14.71866835	      4.62591601	     43.15947614	     90.00000001	      0.00000000	      0.00000000	      9.89628628	    -11.76516726	     -7.97350659	     30.41092861	     90.00000001	      0.00000000	      0.00000000
      1.49000000	      8.02715445	     -1.69373656	     10.47999802	     -0.12608012	      0.87307404	      0.19704895	     -7.68630158	     10.04219906	      1.44244764	     13.82678024	      1.09865693	      0.24132284	     22.18815057	    -11.46694798	     -7.57867174	     20.78397265	      1.98709550	      3.33353942	     43.57507726	     -6.01858350	      0.76052857	     14.41204894	    -13.66798278	     -7.57867174	    -36.65008506	      7.31597795	     -3.88353613	     20.63495261	    -14.83295067	      4.79519099	     43.52913064	     90.00000001	      0.00000000	      0.00000000	      9.48275935	    -11.63626534	     -8.15222334	     30.24452305	     90.00000001	      0.00000000	      0.00000000
